<svg xmlns="http://www.w3.org/2000/svg" viewBox="0 0 705.56 255.28"><defs><style>.cls-1{fill:#231f20;}.cls-2{fill:#f6ec28;}.cls-3{fill:#1aabe2;}.cls-4{fill:#5759a6;}.cls-5{fill:#ea118d;}.cls-6{fill:#29b573;}.cls-7{fill:#912a8d;}</style></defs><title>Asset 2</title><g id="Layer_2" data-name="Layer 2"><g id="Layer_1-2" data-name="Layer 1"><path class="cls-1" d="M73.61,81V89.6c-12-14.64-31.16-12-31.16-12C-2.6,83.22,0,127.52,0,127.52c3.75,48.43,42.8,46.55,42.8,46.55,23.27,0,30.78-12,30.78-12v8.63H105.9V81ZM54.09,146.66c-11.4,0-20.65-8.91-20.65-19.89s9.25-19.9,20.65-19.9,20.65,8.91,20.65,19.9S65.49,146.66,54.09,146.66Z"/><path class="cls-1" d="M486.07,81V89.6c-12-14.64-31.16-12-31.16-12-45.05,5.63-42.42,49.93-42.42,49.93,3.75,48.43,42.8,46.55,42.8,46.55,23.27,0,30.78-12,30.78-12v8.63h32.29V81Zm-19.52,65.69c-11.41,0-20.65-8.91-20.65-19.89s9.24-19.9,20.65-19.9,20.65,8.91,20.65,19.9S478,146.66,466.55,146.66Z"/><path class="cls-1" d="M399.47,170.69V81H367.19V89.6c-12-14.64-31.16-12-31.16-12-45,5.63-42.42,49.93-42.42,49.93,3.75,48.43,42.79,46.55,42.79,46.55,23.28,0,30.79-12,30.79-12,2.63,32.28-20.65,29.28-20.65,29.28A17.9,17.9,0,0,1,330.77,182H295.11c9.76,36.79,51.42,34.54,51.42,34.54C402.45,216.49,399.47,170.69,399.47,170.69Zm-52.93-24c-11.4,0-20.65-8.91-20.65-19.89s9.25-19.9,20.65-19.9,20.65,8.91,20.65,19.9S357.94,146.66,346.54,146.66Z"/><path class="cls-1" d="M185.86,77.4a34.35,34.35,0,0,0-27.4,13.43V81h-33V216.49h33v-55a40.25,40.25,0,0,0,27,12.57c45,0,45.42-43.94,45.42-43.94C230.91,75,185.86,77.4,185.86,77.4Zm-8.45,69.26c-11.5,0-20.83-9-20.83-20.07s9.33-20.08,20.83-20.08,20.84,9,20.84,20.08S188.92,146.66,177.41,146.66Z"/><rect class="cls-1" x="246.68" y="80.97" width="31.91" height="90.1"/><rect class="cls-1" x="246.68" y="53.94" width="31.91" height="15.39"/><polygon class="cls-1" points="592.94 80.97 573.92 80.97 573.92 53.94 541.88 53.94 541.88 80.97 531.37 80.97 531.37 106.87 541.88 106.87 541.88 171.06 573.92 171.06 573.92 106.87 592.94 106.87 592.94 80.97"/><path class="cls-1" d="M662,143.66s-1.69,8-17.37,8c0,0-17.67-1-17.67-20h67.07S701.56,77.4,643.5,77.4c0,0-48.56-3.32-48.56,54.25,0,0,.82,42.43,49.71,42.43,0,0,40.39,3.12,49.72-30.42ZM647.66,98.11c16.67,0,18.36,14.39,18.36,14.39H628.48C628.48,98.11,647.66,98.11,647.66,98.11Z"/><circle class="cls-2" cx="32.06" cy="166.94" r="10.26"/><circle class="cls-3" cx="147.69" cy="49.3" r="10.26"/><circle class="cls-4" cx="381.95" cy="245.02" r="10.26"/><circle class="cls-5" cx="420.5" cy="88.85" r="10.26"/><circle class="cls-6" cx="538.63" cy="10.26" r="10.26"/><circle class="cls-7" cx="695.3" cy="128.64" r="10.26"/><path class="cls-1" d="M392.22,230.26l5.35-8.91c3.49-5.62,8.32-13.74,14.4-23.31s13-20.8,20.72-32.7,15.94-24.55,24.22-37.19S473.62,103,481.58,91.27,497.09,68.7,503.5,59.35s12-17,15.78-22.39l6.08-8.43L520,37.44c-3.49,5.62-8.32,13.74-14.39,23.31s-13,20.81-20.73,32.7S469,118,460.67,130.63,444,155.8,436,167.52s-15.52,22.57-21.93,31.91-12,17-15.77,22.4Z"/><path class="cls-1" d="M54.34,172.19l13.26,2.5c8.41,1.69,20.47,3.91,34.88,6.91s31.24,6.32,49.21,10.23L208,204l56.18,12.79c17.93,4.06,34.59,8.2,48.91,11.57s26.19,6.49,34.52,8.52l13.07,3.36-13.26-2.5c-8.41-1.68-20.48-3.91-34.88-6.9s-31.25-6.32-49.21-10.23L207,208.43l-56.18-12.79c-17.93-4.08-34.59-8.21-48.91-11.58s-26.19-6.48-34.52-8.52Z"/><path class="cls-1" d="M555.9,23.53s1.66,1,4.5,2.9,6.92,4.54,11.7,7.88,10.35,7.26,16.23,11.56,12.09,9,18.28,13.66,12.3,9.51,18,14.09S635.51,82.5,640,86.27s8.08,7,10.66,9.24,4,3.6,4,3.6-1.66-1-4.5-2.9-6.92-4.54-11.7-7.88S628,81.07,622.16,76.77s-12.09-9-18.28-13.66-12.29-9.52-18-14.1S575,40.13,570.54,36.36s-8.09-7-10.67-9.24S555.9,23.53,555.9,23.53Z"/></g></g></svg>