<?xml version="1.0" encoding="utf-8"?>
<!-- Generator: Adobe Illustrator 16.0.0, SVG Export Plug-In . SVG Version: 6.00 Build 0)  -->
<!DOCTYPE svg PUBLIC "-//W3C//DTD SVG 1.1//EN" "http://www.w3.org/Graphics/SVG/1.1/DTD/svg11.dtd">
<svg version="1.1" id="Layer_1" xmlns="http://www.w3.org/2000/svg" xmlns:xlink="http://www.w3.org/1999/xlink" x="0px" y="0px"
	 width="171.9px" height="34.9px" viewBox="0 0 171.9 34.9" enable-background="new 0 0 171.9 34.9" xml:space="preserve">
<g>
	<g>
		<g>
			<path fill="#231F20" d="M73.7,4.1C70.9,1.4,67.6,0,63.6,0c-0.1,0-0.1,0-0.2,0c-2.5,0-4.9,0.6-7,1.9c-2.2,1.3-3.9,3-5.1,5.2
				c-1.3,2.2-1.9,4.6-1.9,7.2c0,3.9,1.4,7.2,4.1,9.9c2.7,2.7,6.1,4.1,10.1,4.1v0c0,0,0,0,0,0c3.9,0,7.3-1.4,10-4.1
				c2.8-2.7,4.1-6.1,4.1-10C77.8,10.2,76.4,6.8,73.7,4.1z M69.3,24.2c-1.8,1-3.7,1.5-5.8,1.5c0,0,0,0-0.1,0c-3.1,0-5.8-1.1-8-3.3
				c-2.2-2.2-3.3-4.9-3.3-8.1c0-2.2,0.5-4.1,1.5-5.9c1-1.8,2.4-3.2,4.2-4.2c1.8-1,3.7-1.6,5.7-1.6c0,0,0,0,0.1,0
				c2,0,3.9,0.5,5.7,1.6c1.8,1,3.2,2.4,4.2,4.2c1,1.7,1.5,3.7,1.5,5.8c0,2.1-0.5,4.1-1.5,5.9C72.5,21.8,71.1,23.2,69.3,24.2z"/>
		</g>
		<g>
			<polygon fill="#F47B20" points="35.4,1.7 34.4,1.7 32.4,1.7 25,20.4 17.6,0.3 9.7,20.4 3.1,1.7 0,1.7 9.6,28 17.5,7.9 24.9,28 
				34.4,4.2 			"/>
			<path fill="#F47B20" d="M47.2,15.5c-1.2-1-2.5-1.8-3.9-2.4l-0.7-0.3l-0.7-0.3c-1.3-0.7-2.3-1.3-3.2-1.8c-0.8-0.6-1.2-1.4-1.2-2.5
				c0-1.1,0.4-2,1.3-2.7c0.8-0.7,1.9-1,3.1-1c0.8,0,1.4,0.2,2,0.5c0.6,0.3,1.1,0.8,1.6,1.5l0.3,0.4c0.1,0.1,0.2,0.2,0.3,0.4l2.2-1.4
				c-0.7-1.3-1.6-2.2-2.7-2.9c-1.1-0.7-2.3-1-3.5-1c-2.1,0-3.9,0.6-5.2,1.8c-1.4,1.2-2,2.7-2,4.6c0,1.8,0.6,3.1,1.8,4.1
				c1.2,1,2.5,1.8,3.9,2.4l0.5,0.2l0.4,0.2c1.3,0.7,2.5,1.3,3.5,2c1,0.7,1.4,1.6,1.4,2.9c0,1.5-0.5,2.7-1.4,3.6
				c-1,1-2.2,1.4-3.7,1.4c-1.3,0-2.4-0.4-3.2-1.2c-0.9-0.8-1.5-1.9-1.8-3.5l-1.7,0.5l-1,0.3c0.2,1,0.6,1.9,1,2.7
				c0.5,0.8,1,1.5,1.7,2.1c1.3,1.1,3,1.7,5.1,1.7c2.2,0,4-0.7,5.6-2.2c1.5-1.5,2.3-3.3,2.3-5.5C49,18,48.4,16.5,47.2,15.5z"/>
		</g>
		<path fill="#F47B20" d="M69.3,24.2c-1.8,1-3.7,1.5-5.8,1.5c0,0,0,0-0.1,0c-3.1,0-5.8-1.1-8-3.3c-2.2-2.2-3.3-4.9-3.3-8.1
			c0-2.2,0.5-4.1,1.5-5.9c1-1.8,2.4-3.2,4.2-4.2c1.8-1,3.7-1.6,5.7-1.6c0,0,0,0,0.1,0c2,0,3.9,0.5,5.7,1.6c1.8,1,3.2,2.4,4.2,4.2
			c1,1.7,1.5,3.7,1.5,5.8c0,2.1-0.5,4.1-1.5,5.9C72.5,21.8,71.1,23.2,69.3,24.2z"/>
		<path fill="#FFFFFF" d="M63.5,8.7l5,12.2l3.3-5.9l3.2,0c0-0.3,0-0.5,0-0.8c0-0.3,0-0.6,0-0.9l-4.2,0L68.8,17L63.6,4.4L59,14.8
			l-6.8,0c0,0.6,0.1,1.1,0.2,1.7l7.7,0L63.5,8.7z"/>
	</g>
	<g>
		<path fill="none" d="M165.2,15.7c-1.5-0.8-3-1.3-4.7-1.3c-1.6,0-3.1,0.4-4.6,1.3c-1.4,0.8-2.6,2-3.4,3.4c-0.8,1.4-1.2,3-1.2,4.7
			c0,1.3,0.2,2.5,0.7,3.6c0.4,1.1,1.1,2.1,2,3c0.9,0.9,1.9,1.6,3,2c1.1,0.4,2.3,0.7,3.5,0.7c1.7,0,3.3-0.4,4.7-1.2
			c1.4-0.8,2.6-1.9,3.4-3.4c0.8-1.4,1.2-3,1.2-4.7c0-1.7-0.4-3.3-1.2-4.7C167.8,17.7,166.6,16.5,165.2,15.7z"/>
		<polygon fill="#F47B20" points="91.1,15 95.8,15 95.8,34.4 97.8,34.4 97.8,15 102.6,15 102.6,13.1 91.1,13.1 		"/>
		<polygon fill="#F47B20" points="105,34.4 117,34.4 117,32.3 106.9,32.3 106.9,23.8 117,23.8 117,22 106.9,22 106.9,15 117.1,15 
			117.1,13.1 105,13.1 		"/>
		<path fill="#F47B20" d="M130.6,32.6L130.6,32.6c-0.1-0.1-0.2-0.2-0.2-0.3h-8.9V13.1h-1.9v21.2h12.8
			C131.7,33.9,131.1,33.3,130.6,32.6z"/>
		<path fill="#F47B20" d="M148.6,30l-0.1-0.1l-0.1,0.1c-0.9,1-2,1.8-3.1,2.3c-1.3,0.6-2.7,0.9-4.2,0.9c-2.8,0-5.1-0.9-6.9-2.7
			c-1.8-1.8-2.7-4-2.7-6.7c0-1.8,0.4-3.4,1.2-4.8c0.8-1.4,2-2.5,3.5-3.4c1.5-0.8,3.1-1.3,4.8-1.3c1.6,0,3.1,0.3,4.4,1
			c1.1,0.5,2.2,1.3,3,2.3l0.1,0.1l0.1-0.1c0.1-0.2,0.2-0.5,0.4-0.7c0.2-0.3,0.3-0.5,0.5-0.8l0-0.1l0,0c-0.9-0.9-1.9-1.7-3.1-2.3
			c-1.6-0.8-3.4-1.2-5.3-1.2c-1.6,0-3.1,0.3-4.5,0.8c-1.4,0.5-2.6,1.3-3.7,2.4s-1.9,2.2-2.4,3.5s-0.8,2.7-0.8,4.3
			c0,1.5,0.2,2.8,0.7,4.1c0.4,1.2,1.1,2.4,2,3.4c1.1,1.2,2.3,2.2,3.8,2.8c1.5,0.6,3.1,0.9,5,0.9c1.9,0,3.7-0.4,5.3-1.1
			c1.2-0.6,2.2-1.3,3.1-2.2l0,0l0-0.1C149.2,30.9,148.9,30.4,148.6,30z"/>
		<path fill="#F47B20" d="M171.1,19.4c-0.5-1.3-1.4-2.5-2.4-3.6c-1.1-1.1-2.3-1.9-3.6-2.4c-1.3-0.5-2.8-0.8-4.4-0.8
			c-2,0-3.8,0.5-5.5,1.5c-1.7,1-3.1,2.4-4,4.1c-1,1.7-1.5,3.6-1.5,5.7c0,1.5,0.3,2.9,0.8,4.2c0.5,1.3,1.4,2.5,2.4,3.6
			c1.1,1.1,2.3,1.9,3.6,2.4c1.3,0.5,2.8,0.8,4.4,0.8c1.5,0,3-0.3,4.3-0.8c1.3-0.5,2.5-1.4,3.6-2.4c1.1-1.1,1.9-2.3,2.4-3.6
			c0.5-1.3,0.8-2.8,0.8-4.3C171.9,22.2,171.7,20.7,171.1,19.4z M168.8,28.4c-0.8,1.4-1.9,2.5-3.4,3.4c-1.4,0.8-3,1.2-4.7,1.2
			c-1.3,0-2.4-0.2-3.5-0.7c-1.1-0.4-2.1-1.1-3-2c-0.9-0.9-1.6-1.9-2-3c-0.4-1.1-0.7-2.3-0.7-3.6c0-1.7,0.4-3.3,1.2-4.7
			c0.8-1.4,1.9-2.6,3.4-3.4c1.4-0.8,3-1.3,4.6-1.3c1.6,0,3.2,0.4,4.7,1.3c1.5,0.8,2.6,2,3.4,3.3c0.8,1.4,1.2,3,1.2,4.7
			C170,25.4,169.6,27,168.8,28.4z"/>
	</g>
	<g>
		<path fill="#231F20" d="M87.4,32.3h-9.5l5.2-5.6c1.6-1.8,2.7-3.2,3.3-4.2c0.6-1,0.8-2.1,0.8-3.3c0-1.7-0.6-3.1-1.8-4.4
			c-1.2-1.2-2.7-1.9-4.6-1.9c-0.7,0-1.4,0.1-2,0.3c0,0.2,0,0.4,0,0.6c0,0.5,0,1-0.1,1.5c0.6-0.3,1.2-0.4,2-0.4
			c1.3,0,2.3,0.4,3.2,1.3c0.9,0.8,1.3,1.8,1.3,3c0,0.9-0.2,1.8-0.7,2.6c-0.5,0.8-1.5,2.1-3.1,3.8l-7.9,8.6h14
			c-0.1-0.3-0.1-0.6-0.1-1C87.2,33,87.3,32.6,87.4,32.3z"/>
	</g>
	<circle fill="#F47B20" cx="91.6" cy="33.3" r="1.5"/>
</g>
</svg>
